<?xml version="1.0" encoding="utf-8"?>
<svg xmlns="http://www.w3.org/2000/svg" width="512" height="512" viewBox="0 0 512 512">
  <g style="" transform="matrix(1.825933, 0, 0, 1.708714, -211.438843, -150.202042)">
    <path d="M 248.23 367.16 C247.23,366.53 247.17,363.92 247.92,354.93 C249.48,336.46 250.33,316.00 249.53,316.00 C248.08,316.00 195.25,325.77 187.79,327.42 C184.04,328.24 184.09,325.58 188.00,315.62 C190.90,308.24 191.65,305.22 191.01,303.52 C190.04,300.97 185.19,296.94 153.25,272.11 C141.01,262.60 131.00,254.27 131.00,253.60 C131.00,252.94 134.49,250.95 138.75,249.20 C143.01,247.44 147.16,245.57 147.97,245.05 C149.63,243.99 149.43,243.07 141.91,216.23 C139.71,208.38 138.18,201.51 138.51,200.98 C139.48,199.41 141.36,199.74 159.26,204.63 C173.18,208.43 176.38,209.01 177.10,207.88 C177.58,207.12 179.36,202.34 181.07,197.25 C182.91,191.75 184.71,188.00 185.50,188.00 C186.23,188.00 193.71,195.88 202.11,205.50 C210.52,215.12 217.72,223.00 218.13,223.00 C218.54,223.00 218.66,221.54 218.40,219.75 C218.13,217.96 216.87,209.24 215.60,200.38 C214.32,191.51 212.96,183.75 212.58,183.13 C212.20,182.51 211.12,182.00 210.19,181.99 C206.86,181.97 198.43,177.25 195.25,173.63 C189.27,166.82 187.56,162.36 187.53,153.50 C187.49,143.72 190.04,137.95 197.24,131.47 C203.01,126.29 209.25,124.00 217.62,124.00 L 223.89 124.00 L 228.97 118.62 C232.23,115.18 236.29,112.22 240.28,110.37 C245.82,107.82 247.60,107.50 256.50,107.50 C265.53,107.50 267.08,107.78 272.50,110.44 C275.83,112.07 280.72,115.67 283.50,118.55 L 288.50 123.73 L 296.50 124.20 C309.00,124.93 317.72,130.78 322.76,141.79 C324.91,146.48 325.18,148.25 324.79,154.86 C324.26,163.70 322.10,168.64 316.33,174.20 C312.48,177.91 304.96,181.94 301.81,181.98 C300.88,181.99 299.85,182.43 299.53,182.95 C298.68,184.32 293.87,219.10 294.21,221.36 C294.42,222.73 298.76,218.39 309.96,205.59 C318.85,195.43 326.03,188.05 326.87,188.22 C327.73,188.38 329.60,192.29 331.42,197.71 C333.11,202.77 334.98,207.39 335.57,207.98 C336.33,208.73 341.73,207.70 353.98,204.48 C363.52,201.97 371.98,200.16 372.78,200.47 C373.06,200.58 373.30,200.65 373.48,200.80 C374.39,201.58 373.59,204.37 368.14,224.08 C365.31,234.30 363.00,243.13 363.00,243.69 C363.00,244.25 367.05,246.39 372.00,248.45 C377.10,250.56 381.00,252.77 381.00,253.54 C381.00,254.29 368.99,264.26 354.32,275.70 C323.16,299.99 321.00,301.90 321.00,305.16 C321.00,306.50 322.57,311.40 324.48,316.05 C328.18,325.02 328.53,326.55 327.11,327.43 C326.62,327.74 318.63,326.43 309.36,324.53 C289.30,320.42 265.47,316.00 263.36,316.00 C262.08,316.00 261.94,317.36 262.43,324.75 C264.99,363.69 265.15,366.12 264.08,366.96 C264.00,367.02 263.91,367.07 263.82,367.13 C262.13,368.20 249.91,368.23 248.23,367.16 ZM 193.00 319.54 C193.00,320.33 194.56,320.10 213.29,316.57 C223.31,314.69 235.72,312.38 240.87,311.45 L 250.24 309.75 L 217.87 277.37 C173.31,232.80 175.51,233.88 228.65,282.71 L 252.81 304.91 L 253.39 294.71 C253.71,289.09 254.24,270.10 254.57,252.50 C254.91,234.90 255.52,220.14 255.93,219.71 C256.78,218.82 258.00,243.24 258.00,261.00 C258.00,279.80 259.24,303.00 260.24,303.00 C260.75,303.00 267.54,297.04 275.34,289.75 C298.16,268.41 321.73,246.88 323.95,245.33 C325.57,244.19 326.01,244.16 326.03,245.19 C326.05,245.91 312.02,260.35 294.85,277.27 C274.95,296.88 263.98,308.38 264.59,308.99 C265.12,309.52 268.91,310.61 273.03,311.42 C308.18,318.34 318.21,320.13 318.74,319.59 C319.08,319.25 318.54,317.29 317.54,315.24 C314.60,309.18 313.97,305.01 315.45,301.46 C317.11,297.49 325.30,290.47 356.22,266.54 C363.76,260.70 370.16,255.55 370.44,255.10 C370.72,254.65 368.03,253.04 364.46,251.52 C361.44,250.24 359.39,249.37 358.28,247.83 C355.95,244.60 357.72,238.41 363.20,219.20 C364.81,213.53 365.99,208.52 365.82,208.07 C365.64,207.61 360.55,208.56 354.50,210.19 C341.08,213.78 334.96,214.59 332.20,213.11 C330.85,212.38 329.32,209.52 327.86,204.99 C326.62,201.15 325.31,198.00 324.94,198.00 C324.57,198.00 318.11,204.97 310.59,213.49 C303.07,222.01 296.01,229.46 294.92,230.04 C289.80,232.78 286.84,227.95 288.22,219.14 C288.69,216.14 288.72,213.36 288.29,212.97 C285.35,210.35 254.98,207.70 243.63,209.07 C232.54,210.42 224.05,212.11 223.45,213.08 C223.18,213.52 223.36,216.49 223.86,219.68 C225.19,228.16 223.25,231.50 217.76,230.19 C216.80,229.96 209.69,222.62 201.96,213.89 C194.23,205.15 187.59,198.00 187.20,198.01 C186.82,198.01 185.67,200.60 184.65,203.76 C181.85,212.47 180.59,214.00 176.23,214.00 C174.18,214.00 166.51,212.38 159.19,210.39 C151.87,208.41 145.72,206.95 145.52,207.15 C145.32,207.35 147.16,214.49 149.61,223.01 C152.07,231.53 154.33,240.30 154.64,242.50 C155.31,247.28 154.07,248.69 146.21,252.03 C143.31,253.27 141.06,254.65 141.21,255.11 C141.37,255.57 148.07,261.02 156.11,267.22 C191.26,294.36 196.19,298.14 196.89,302.58 C197.01,303.34 197.00,304.12 197.00,305.04 C197.00,307.18 196.10,311.21 195.00,314.00 C193.90,316.79 193.00,319.28 193.00,319.54 ZM 209.97 176.46 C212.46,177.23 215.43,177.89 216.57,177.93 C220.73,178.07 228.72,174.95 232.44,171.74 L 236.25 168.45 L 233.76 165.47 C231.36,162.60 229.29,158.00 230.41,158.00 C230.70,158.00 232.91,159.97 235.32,162.37 C240.85,167.91 248.77,171.01 257.29,170.98 C265.15,170.95 270.96,168.41 277.23,162.26 C279.83,159.71 282.23,157.89 282.56,158.22 C283.33,159.00 281.36,162.83 278.63,165.85 L 276.50 168.20 L 280.45 171.63 C286.08,176.52 293.77,178.59 300.60,177.07 C317.38,173.31 325.21,154.06 315.73,139.90 C310.99,132.83 299.69,127.78 292.59,129.57 C290.08,130.20 289.99,130.45 290.61,135.11 C291.51,141.87 289.76,141.36 287.11,134.08 C283.01,122.83 271.97,113.72 260.87,112.41 C244.95,110.54 228.50,121.19 224.84,135.73 C223.37,141.55 221.73,141.15 222.15,135.07 C222.49,130.32 222.40,130.13 219.57,129.56 C210.46,127.74 198.50,134.75 194.55,144.22 C192.44,149.27 192.60,158.53 194.89,163.56 C197.25,168.75 204.17,174.68 209.97,176.46 ZM 219.64 191.25 C219.98,193.31 220.39,195.00 220.55,195.00 C220.71,195.00 224.82,194.00 229.67,192.78 C237.20,190.89 241.16,190.57 256.50,190.59 C273.45,190.62 279.78,191.37 290.20,194.58 C291.52,194.99 292.03,194.27 292.51,191.30 C292.85,189.21 293.35,186.32 293.62,184.87 C294.06,182.50 293.74,182.17 290.35,181.54 C285.74,180.67 280.29,177.96 276.12,174.45 C272.99,171.82 272.93,171.81 268.84,173.45 C261.74,176.29 253.39,176.52 246.18,174.08 L 239.87 171.93 L 236.18 174.83 C231.32,178.65 227.25,180.67 222.72,181.53 C218.66,182.29 218.33,183.32 219.64,191.25 ZM 222.32 206.40 C222.75,207.52 224.21,207.43 230.67,205.84 C242.71,202.89 262.26,202.31 275.06,204.53 C285.62,206.36 288.94,206.96 290.08,205.66 C290.63,205.04 290.68,203.98 290.80,202.41 L 291.10 198.31 L 283.10 196.58 C264.81,192.63 244.63,192.74 228.50,196.88 C221.62,198.64 221.50,198.73 221.65,201.85 C221.73,203.60 222.03,205.65 222.32,206.40 ZM 252.38 354.75 L 251.72 363.00 L 260.08 363.00 L 259.44 351.25 C257.60,317.31 257.18,313.48 255.53,315.13 C255.28,315.39 254.61,322.55 254.05,331.05 C253.49,339.55 252.73,350.21 252.38,354.75 Z" fill="rgba(132,26,25,1)"/>
    <path d="M 193.00 319.54 C193.00,319.28 193.90,316.79 195.00,314.00 C196.10,311.21 197.00,307.18 197.00,305.04 C197.00,304.12 197.01,303.34 196.89,302.58 C196.19,298.14 191.26,294.36 156.11,267.22 C148.07,261.02 141.37,255.57 141.21,255.11 C141.06,254.65 143.31,253.27 146.21,252.03 C154.07,248.69 155.31,247.28 154.64,242.50 C154.33,240.30 152.07,231.53 149.61,223.01 C147.16,214.49 145.32,207.35 145.52,207.15 C145.72,206.95 151.87,208.41 159.19,210.39 C166.51,212.38 174.18,214.00 176.23,214.00 C180.59,214.00 181.85,212.47 184.65,203.76 C185.67,200.60 186.82,198.01 187.20,198.01 C187.59,198.00 194.23,205.15 201.96,213.89 C209.69,222.62 216.80,229.96 217.76,230.19 C223.25,231.50 225.19,228.16 223.86,219.68 C223.36,216.49 223.18,213.52 223.45,213.08 C224.05,212.11 232.54,210.42 243.63,209.07 C254.98,207.70 285.35,210.35 288.29,212.97 C288.72,213.36 288.69,216.14 288.22,219.14 C286.84,227.95 289.80,232.78 294.92,230.04 C296.01,229.46 303.07,222.01 310.59,213.49 C318.11,204.97 324.57,198.00 324.94,198.00 C325.31,198.00 326.62,201.15 327.86,204.99 C329.32,209.52 330.85,212.38 332.20,213.11 C334.96,214.59 341.08,213.78 354.50,210.19 C360.55,208.56 365.64,207.61 365.82,208.07 C365.99,208.52 364.81,213.53 363.20,219.20 C357.72,238.41 355.95,244.60 358.28,247.83 C359.39,249.37 361.44,250.24 364.46,251.52 C368.03,253.04 370.72,254.65 370.44,255.10 C370.16,255.55 363.76,260.70 356.22,266.54 C325.30,290.47 317.11,297.49 315.45,301.46 C313.97,305.01 314.60,309.18 317.54,315.24 C318.54,317.29 319.08,319.25 318.74,319.59 C318.21,320.13 308.18,318.34 273.03,311.42 C268.91,310.61 265.12,309.52 264.59,308.99 C263.98,308.38 274.95,296.88 294.85,277.27 C312.02,260.35 326.05,245.91 326.03,245.19 C326.01,244.16 325.57,244.19 323.95,245.33 C321.73,246.88 298.16,268.41 275.34,289.75 C267.54,297.04 260.75,303.00 260.24,303.00 C259.24,303.00 258.00,279.80 258.00,261.00 C258.00,243.24 256.78,218.82 255.93,219.71 C255.52,220.14 254.91,234.90 254.57,252.50 C254.24,270.10 253.71,289.09 253.39,294.71 L 252.81 304.91 L 228.65 282.71 C175.51,233.88 173.31,232.80 217.87,277.37 L 250.24 309.75 L 240.87 311.45 C235.72,312.38 223.31,314.69 213.29,316.57 C194.56,320.10 193.00,320.33 193.00,319.54 ZM 252.38 354.75 C252.73,350.21 253.49,339.55 254.05,331.05 C254.61,322.55 255.28,315.39 255.53,315.13 C257.18,313.48 257.60,317.31 259.44,351.25 L 260.08 363.00 L 251.72 363.00 Z" fill="rgba(210,56,49,1)"/>
    <path d="M 222.32 206.40 C222.03,205.65 221.73,203.60 221.65,201.85 C221.50,198.73 221.62,198.64 228.50,196.88 C244.63,192.74 264.81,192.63 283.10,196.58 L 291.10 198.31 L 290.80 202.41 C290.44,207.27 290.68,207.23 275.06,204.53 C262.26,202.31 242.71,202.89 230.67,205.84 C224.21,207.43 222.75,207.52 222.32,206.40 ZM 219.64 191.25 C218.33,183.32 218.66,182.29 222.72,181.53 C227.25,180.67 231.32,178.65 236.18,174.83 L 239.87 171.93 L 246.18 174.08 C253.39,176.52 261.74,176.29 268.84,173.45 C272.93,171.81 272.99,171.82 276.12,174.45 C280.29,177.96 285.74,180.67 290.35,181.54 C293.74,182.17 294.06,182.50 293.62,184.87 C293.35,186.32 292.85,189.21 292.51,191.30 C292.03,194.27 291.52,194.99 290.20,194.58 C279.78,191.37 273.45,190.62 256.50,190.59 C241.16,190.57 237.20,190.89 229.67,192.78 C224.82,194.00 220.71,195.00 220.55,195.00 C220.39,195.00 219.98,193.31 219.64,191.25 ZM 209.97 176.46 C204.17,174.68 197.25,168.75 194.89,163.56 C192.60,158.53 192.44,149.27 194.55,144.22 C198.50,134.75 210.46,127.74 219.57,129.56 C222.40,130.13 222.49,130.32 222.15,135.07 C221.73,141.15 223.37,141.55 224.84,135.73 C228.50,121.19 244.95,110.54 260.87,112.41 C271.97,113.72 283.01,122.83 287.11,134.08 C289.76,141.36 291.51,141.87 290.61,135.11 C289.99,130.45 290.08,130.20 292.59,129.57 C299.69,127.78 310.99,132.83 315.73,139.90 C325.21,154.06 317.38,173.31 300.60,177.07 C293.77,178.59 286.08,176.52 280.45,171.63 L 276.50 168.20 L 278.63 165.85 C281.36,162.83 283.33,159.00 282.56,158.22 C282.23,157.89 279.83,159.71 277.23,162.26 C270.96,168.41 265.15,170.95 257.29,170.98 C248.77,171.01 240.85,167.91 235.32,162.37 C232.91,159.97 230.70,158.00 230.41,158.00 C229.29,158.00 231.36,162.60 233.76,165.47 L 236.25 168.45 L 232.44 171.74 C228.72,174.95 220.73,178.07 216.57,177.93 C215.43,177.89 212.46,177.23 209.97,176.46 Z" fill="rgba(251,251,251,1)"/>
  </g>
</svg>